# xmcd CD database file
#
# Track frame offsets:
#	180
#	30493
#	72777
#	112615
#	149822
#	189876
#	220321
#	254632
#
# Disc length: 4091 seconds
#
# Revision: 0
# Processed by: cddbd v1.5.2PL0 Copyright (c) Steve Scherf et al.
# Submitted via: CDex 1.51
#
DISCID=710ff908
DTITLE=Buhaina - Swallows and Africans
DYEAR=1996
DGENRE=Jazz
TTITLE0=Iroko
TTITLE1=Calypso for Kingston (Upon Hull)
TTITLE2=Impi
TTITLE3=Sweet P
TTITLE4=One for Jerome
TTITLE5=Rainbow Republic
TTITLE6=Heritage
TTITLE7=Swallows and Africans
EXTD=YEAR: 1996
EXTT0=
EXTT1=
EXTT2=
EXTT3=
EXTT4=
EXTT5=
EXTT6=
EXTT7=
PLAYORDER=
